<?xml version="1.0" encoding="UTF-8"?>
<svg width="641px" height="151px" viewBox="0 0 641 151" version="1.1" xmlns="http://www.w3.org/2000/svg" xmlns:xlink="http://www.w3.org/1999/xlink">
    <title>编组 4</title>
    <g id="页面-2" stroke="none" stroke-width="1" fill="none" fill-rule="evenodd">
        <g id="画板" transform="translate(-134.000000, -1546.000000)" fill="#FEEECB">
            <g id="编组-4" transform="translate(134.000000, 1546.000000)">
                <g id="编组">
                    <polygon id="矩形" points="33.3333333 0 100 16.6666667 100 116.666667 33.3333333 100"></polygon>
                    <polygon id="矩形" opacity="0.5" points="-1.48029737e-14 33.3333333 66.6666667 50 66.6666667 150 -1.48029737e-14 133.333333"></polygon>
                    <polygon id="矩形备份" opacity="0.600000024" points="100 16.6666667 166.666667 0 166.666667 100 100 116.666667"></polygon>
                    <polygon id="矩形备份" opacity="0.600000024" points="133.333333 50 200 33.3333333 200 133.333333 133.333333 150"></polygon>
                </g>
                <g id="Classical" transform="translate(240.000000, 1.000000)" fill-rule="nonzero">
                    <path d="M27.7769299,150 C23.579004,150 19.8714901,149.469652 16.654388,148.408957 C13.437286,147.348262 10.7792535,145.875074 8.68029058,143.989393 C6.58132766,142.103712 4.87469426,139.766254 3.56039037,136.977018 C2.24608649,134.187782 1.32411212,131.1923 0.794467273,127.990572 C0.264822424,124.788843 0,121.184443 0,117.177372 L0,33.1172658 C0,28.8744844 0.274630662,25.1129444 0.823891987,21.8326458 C1.37315331,18.5523473 2.29512768,15.5077588 3.58981509,12.6988804 C4.88450249,9.89000196 6.58132766,7.58200746 8.68029058,5.77489688 C10.7792535,3.96778629 13.4274777,2.55352583 16.6249633,1.5321155 C19.8224489,0.510705166 23.5397711,0 27.7769299,0 C32.6418159,0 36.8005088,0.648202711 40.2530085,1.94460813 C43.7055083,3.24101355 46.4321984,5.14633667 48.433079,7.66057749 C50.4339595,10.1748183 51.8855787,13.111373 52.7879366,16.4702416 C53.6902945,19.8291102 54.1414734,23.7477902 54.1414734,28.2262817 L54.1414734,36.5939894 L37.01629,36.5939894 L37.01629,28.2852092 C37.01629,23.4138676 36.7612758,20.133569 36.2512474,18.4443135 C35.2311907,15.1443724 32.7398982,13.3765468 28.7773701,13.1408368 C28.4635065,13.1408368 28.1496429,13.1408368 27.8357793,13.1408368 C26.3449271,13.1408368 25.0404315,13.3176193 23.9222923,13.6711844 C22.8041532,14.0247496 21.8919871,14.584561 21.185794,15.3506187 C20.4796008,16.1166765 19.910723,16.9318405 19.4791606,17.7961108 C19.0475981,18.6603811 18.7239262,19.7898252 18.508145,21.1844431 C18.2923638,22.5790611 18.1550484,23.8656453 18.096199,25.0441956 C18.0373496,26.222746 18.0079249,27.7155765 18.0079249,29.5226871 L18.0079249,120.889806 C18.0079249,126.625417 18.7239262,130.711059 20.155929,133.14673 C21.5879317,135.5824 24.1478818,136.800236 27.8357793,136.800236 C29.0912337,136.800236 30.1995646,136.652917 31.1607719,136.358279 C32.1219793,136.063642 32.9262548,135.690434 33.5735985,135.238656 C34.2209422,134.786879 34.7702035,134.138676 35.2213824,133.294048 C35.6725614,132.449421 36.0158497,131.66372 36.2512474,130.936948 C36.4866451,130.210175 36.6631934,129.198586 36.7808923,127.90218 C36.8985911,126.605775 36.9672488,125.505795 36.9868653,124.602239 C37.0064818,123.698684 37.01629,122.461206 37.01629,120.889806 L37.01629,112.168533 L54.1414734,112.168533 L54.1414734,120.182675 C54.1414734,123.836181 53.8864593,127.11648 53.3764309,130.023571 C52.8664025,132.930662 51.9934693,135.66097 50.7576313,138.214496 C49.5217934,140.768022 47.9230506,142.889413 45.961403,144.578668 C43.9997554,146.267924 41.4888465,147.593793 38.4286763,148.556276 C35.368506,149.518759 31.8179239,150 27.7769299,150 Z" id="路径"></path>
                    <polygon id="路径" points="66.4998532 148.82145 66.4998532 1.11962286 82.977693 1.11962286 82.977693 148.82145"></polygon>
                    <path d="M115.639125,137.153801 C116.89458,137.153801 118.140226,136.682381 119.376064,135.73954 C120.611902,134.7967 121.602534,133.834217 122.34796,132.852092 L122.34796,113.641721 C114.187506,118.159497 110.107279,123.286191 110.107279,129.021803 C110.107279,131.536044 110.587883,133.519937 111.54909,134.973483 C112.510297,136.427028 113.873643,137.153801 115.639125,137.153801 Z M109.342237,149.941072 C104.948146,149.901787 101.348523,148.183068 98.5433666,144.784915 C95.7382105,141.386761 94.3356325,137.546651 94.3356325,133.264585 C94.3356325,129.218228 95.0025927,125.682577 96.3365131,122.657631 C97.6704334,119.632685 99.8576705,117.039874 102.898224,114.879199 C105.938778,112.718523 108.459495,111.147122 110.460376,110.164997 C112.461256,109.182872 115.541043,107.886466 119.699736,106.275781 C120.876724,105.804361 121.759466,105.450796 122.34796,105.215085 L122.34796,99.381261 C122.34796,96.23846 121.985055,93.9402868 121.259246,92.4867413 C120.533436,91.0331958 119.052392,90.3064231 116.816114,90.3064231 C113.167449,90.3064231 111.303884,92.8599489 111.225418,97.9670006 L110.990021,102.327637 L95.2183739,101.738362 C95.2183739,101.502652 95.2281822,101.070517 95.2477986,100.441956 C95.2674151,99.8133962 95.2772234,99.4009036 95.2772234,99.2044785 C95.7872517,91.8974661 97.9548723,86.5350619 101.780085,83.1172658 C105.605298,79.6994697 111.068486,77.9905716 118.169651,77.9905716 C125.035417,77.9905716 130.125893,79.8566097 133.441077,83.5886859 C136.756262,87.3207621 138.413854,92.6045963 138.413854,99.4401886 L138.413854,131.319976 C138.413854,136.662738 138.845416,142.496563 139.708541,148.82145 L124.819636,148.82145 C123.917278,144.264388 123.3484,140.846592 123.113003,138.568061 C122.132179,141.789432 120.494203,144.490277 118.199075,146.670595 C115.903948,148.850913 112.951668,149.941072 109.342237,149.941072 Z" id="形状"></path>
                    <path d="M168.544761,149.941072 C162.777517,149.941072 158.049946,148.330387 154.362049,145.109016 C150.674151,141.887645 148.143626,137.252013 146.770473,131.202121 L159.246551,126.664702 C160.109676,130.514634 161.325898,133.431546 162.895216,135.415439 C164.464534,137.399332 166.426181,138.351994 168.780158,138.273424 C170.506408,138.234139 171.928603,137.6154 173.046742,136.417207 C174.164881,135.219014 174.684718,133.755647 174.606252,132.027107 C174.44932,129.512866 172.154192,126.350422 167.720869,122.539776 L158.36381,114.525633 C151.615742,108.711452 148.320174,102.641917 148.477106,96.3170301 C148.594805,90.7385582 150.487795,86.2895305 154.156076,82.969947 C157.824357,79.6503634 162.502886,77.9905716 168.191664,77.9905716 C173.645045,77.9905716 178.078368,79.6405421 181.491635,82.9404832 C184.904902,86.2404243 187.121563,90.6599882 188.14162,96.199175 L177.313326,100.736594 C175.822473,93.5081516 173.036934,89.874288 168.956707,89.8350029 C167.230457,89.7957179 165.847495,90.3260656 164.807822,91.426046 C163.768149,92.5260263 163.248312,93.8420742 163.248312,95.3741897 C163.209079,97.4955804 165.15111,100.265174 169.074406,103.68297 L178.608013,112.345315 C180.216564,113.759576 181.550484,115.026517 182.609774,116.14614 C183.669064,117.265763 184.777395,118.630917 185.934767,120.241603 C187.092139,121.852288 187.955264,123.580829 188.524141,125.427225 C189.093019,127.27362 189.377458,129.257513 189.377458,131.378904 C189.377458,137.271656 187.425619,141.838539 183.52194,145.079552 C179.618261,148.320566 174.625868,149.941072 168.544761,149.941072 Z" id="路径"></path>
                    <path d="M216.330496,149.941072 C210.563252,149.941072 205.835681,148.330387 202.147784,145.109016 C198.459887,141.887645 195.929361,137.252013 194.556208,131.202121 L207.032286,126.664702 C207.895411,130.514634 209.111633,133.431546 210.680951,135.415439 C212.250269,137.399332 214.211917,138.351994 216.565894,138.273424 C218.292144,138.234139 219.714338,137.6154 220.832477,136.417207 C221.950616,135.219014 222.470453,133.755647 222.391987,132.027107 C222.235055,129.512866 219.939928,126.350422 215.506604,122.539776 L206.149545,114.525633 C199.401477,108.711452 196.105909,102.641917 196.262841,96.3170301 C196.38054,90.7385582 198.27353,86.2895305 201.941811,82.969947 C205.610092,79.6503634 210.288621,77.9905716 215.977399,77.9905716 C221.43078,77.9905716 225.864103,79.6405421 229.27737,82.9404832 C232.690637,86.2404243 234.907299,90.6599882 235.927355,96.199175 L225.099061,100.736594 C223.608209,93.5081516 220.822669,89.874288 216.742442,89.8350029 C215.016192,89.7957179 213.633231,90.3260656 212.593557,91.426046 C211.553884,92.5260263 211.034048,93.8420742 211.034048,95.3741897 C210.994815,97.4955804 212.936846,100.265174 216.860141,103.68297 L226.393748,112.345315 C228.002299,113.759576 229.33622,115.026517 230.395509,116.14614 C231.454799,117.265763 232.56313,118.630917 233.720502,120.241603 C234.877874,121.852288 235.740999,123.580829 236.309877,125.427225 C236.878755,127.27362 237.163193,129.257513 237.163193,131.378904 C237.163193,137.271656 235.211354,141.838539 231.307675,145.079552 C227.403997,148.320566 222.411604,149.941072 216.330496,149.941072 Z" id="路径"></path>
                    <path d="M246.579102,68.0318209 L246.579102,54.1249263 L263.115791,54.1249263 L263.115791,68.0318209 L246.579102,68.0318209 Z M246.579102,148.82145 L246.579102,79.0512669 L263.056942,79.0512669 L263.056942,148.82145 L246.579102,148.82145 Z" id="形状"></path>
                    <path d="M296.895362,149.941072 C289.009539,149.941072 283.340378,147.721469 279.887878,143.282263 C276.435378,138.843056 274.709128,132.419957 274.709128,124.012964 L274.709128,103.800825 C274.709128,95.3938323 276.435378,88.9903752 279.887878,84.5904537 C283.340378,80.1905323 289.009539,77.9905716 296.895362,77.9905716 C304.31039,77.9905716 309.695113,79.7387547 313.04953,83.2351208 C316.403948,86.7314869 318.081156,92.1528187 318.081156,99.4991161 L318.081156,105.156158 L302.721456,105.156158 L302.721456,99.2044785 C302.721456,95.6688273 302.299702,93.2036928 301.456193,91.8090748 C300.612685,90.4144569 299.151257,89.7171479 297.071911,89.7171479 C294.757167,89.7171479 293.197657,90.5421332 292.393381,92.1921037 C291.589106,93.8420742 291.186968,96.9063052 291.186968,101.384797 L291.186968,126.841485 C291.186968,131.280691 291.628339,134.276174 292.51108,135.827932 C293.393822,137.37969 294.914098,138.155569 297.071911,138.155569 C299.268956,138.155569 300.759808,137.399332 301.544467,135.886859 C302.329126,134.374386 302.721456,132.086034 302.721456,129.021803 L302.721456,121.538008 L318.081156,121.538008 L318.081156,128.13789 C318.081156,135.366333 316.364715,140.807307 312.931832,144.460813 C309.498948,148.114319 304.153459,149.941072 296.895362,149.941072 Z" id="路径"></path>
                    <path d="M348.624009,137.153801 C349.879464,137.153801 351.12511,136.682381 352.360948,135.73954 C353.596786,134.7967 354.587418,133.834217 355.332844,132.852092 L355.332844,113.641721 C347.17239,118.159497 343.092163,123.286191 343.092163,129.021803 C343.092163,131.536044 343.572767,133.519937 344.533974,134.973483 C345.495181,136.427028 346.858527,137.153801 348.624009,137.153801 Z M342.327121,149.941072 C337.93303,149.901787 334.333407,148.183068 331.528251,144.784915 C328.723095,141.386761 327.320517,137.546651 327.320517,133.264585 C327.320517,129.218228 327.987477,125.682577 329.321397,122.657631 C330.655317,119.632685 332.842555,117.039874 335.883108,114.879199 C338.923662,112.718523 341.444379,111.147122 343.44526,110.164997 C345.44614,109.182872 348.525927,107.886466 352.68462,106.275781 C353.861608,105.804361 354.74435,105.450796 355.332844,105.215085 L355.332844,99.381261 C355.332844,96.23846 354.969939,93.9402868 354.24413,92.4867413 C353.51832,91.0331958 352.037276,90.3064231 349.800998,90.3064231 C346.152333,90.3064231 344.288768,92.8599489 344.210302,97.9670006 L343.974905,102.327637 L328.203258,101.738362 C328.203258,101.502652 328.213066,101.070517 328.232683,100.441956 C328.252299,99.8133962 328.262107,99.4009036 328.262107,99.2044785 C328.772136,91.8974661 330.939756,86.5350619 334.764969,83.1172658 C338.590182,79.6994697 344.053371,77.9905716 351.154535,77.9905716 C358.020301,77.9905716 363.110777,79.8566097 366.425961,83.5886859 C369.741146,87.3207621 371.398738,92.6045963 371.398738,99.4401886 L371.398738,131.319976 C371.398738,136.662738 371.8303,142.496563 372.693425,148.82145 L357.80452,148.82145 C356.902162,144.264388 356.333284,140.846592 356.097887,138.568061 C355.117063,141.789432 353.479087,144.490277 351.183959,146.670595 C348.888832,148.850913 345.936552,149.941072 342.327121,149.941072 Z" id="形状"></path>
                    <polygon id="路径" points="384.52216 148.82145 384.52216 1.11962286 401 1.11962286 401 148.82145"></polygon>
                </g>
            </g>
        </g>
    </g>
</svg>